<svg xmlns="http://www.w3.org/2000/svg" viewBox="0 0 1061 210" width="1061" height="210" role="img" aria-label="The Reform Room">
  <g transform="translate(20, 150)" opacity="0.9"><path d="M14.760-49.856L14.760-49.856Q9.594-49.856 7.257-47.396Q4.920-44.936 4.018-38.622L4.018-38.622Q4.018-38.458 3.526-38.458Q3.034-38.458 3.034-38.622L3.034-38.622Q3.198-39.606 3.403-41.492Q3.608-43.378 3.772-45.551Q3.936-47.724 4.059-49.733Q4.182-51.742 4.182-53.054L4.182-53.054Q4.182-53.464 4.674-53.464Q5.166-53.464 5.166-53.054L5.166-53.054Q5.166-52.234 5.945-51.865Q6.724-51.496 7.749-51.373Q8.774-51.250 9.512-51.250L9.512-51.250Q16.564-51.004 25.994-51.004L25.994-51.004Q31.816-51.004 35.219-51.127Q38.622-51.250 41.820-51.250L41.820-51.250Q44.526-51.250 46.043-51.619Q47.560-51.988 47.970-53.300L47.970-53.300Q48.052-53.628 48.462-53.628Q48.872-53.628 48.872-53.300L48.872-53.300Q48.790-52.070 48.626-50.020Q48.462-47.970 48.380-45.715Q48.298-43.460 48.216-41.533Q48.134-39.606 48.134-38.622L48.134-38.622Q48.134-38.458 47.642-38.458Q47.150-38.458 47.150-38.622L47.150-38.622Q47.150-44.936 45.018-47.396Q42.886-49.856 37.228-49.856L37.228-49.856Q33.374-49.856 31.447-49.569Q29.520-49.282 28.905-48.175Q28.290-47.068 28.290-44.444L28.290-44.444L28.290-6.642Q28.290-4.264 28.864-3.034Q29.438-1.804 31.201-1.394Q32.964-0.984 36.572-0.984L36.572-0.984Q36.736-0.984 36.736-0.492Q36.736 0 36.572 0L36.572 0Q34.440 0 31.775-0.082Q29.110-0.164 25.994-0.164L25.994-0.164Q23.042-0.164 20.377-0.082Q17.712 0 15.498 0L15.498 0Q15.334 0 15.334-0.492Q15.334-0.984 15.498-0.984L15.498-0.984Q19.024-0.984 20.828-1.394Q22.632-1.804 23.247-3.034Q23.862-4.264 23.862-6.642L23.862-6.642L23.862-44.608Q23.862-47.232 23.206-48.339Q22.550-49.446 20.582-49.651Q18.614-49.856 14.760-49.856Z M56.038 0L56.038 0Q55.792 0 55.792-0.492Q55.792-0.984 56.038-0.984L56.038-0.984Q59.400-0.984 60.384-2.050Q61.368-3.116 61.368-6.642L61.368-6.642L61.368-49.200Q61.368-52.152 60.794-53.505Q60.220-54.858 58.744-54.858L58.744-54.858Q57.432-54.858 54.808-53.628L54.808-53.628Q54.480-53.464 54.275-53.915Q54.070-54.366 54.398-54.530L54.398-54.530L64.484-59.450Q64.566-59.450 64.566-59.450Q64.566-59.450 64.648-59.450L64.648-59.450Q64.894-59.450 65.058-59.286Q65.222-59.122 65.222-58.876L65.222-58.876L65.222-6.642Q65.222-3.116 66.206-2.050Q67.190-0.984 70.634-0.984L70.634-0.984Q70.798-0.984 70.798-0.492Q70.798 0 70.634 0L70.634 0Q69.158 0 67.313-0.082Q65.468-0.164 63.336-0.164L63.336-0.164Q61.286-0.164 59.359-0.082Q57.432 0 56.038 0ZM78.096 0L78.096 0Q77.850 0 77.850-0.492Q77.850-0.984 78.096-0.984L78.096-0.984Q81.458-0.984 82.442-2.050Q83.426-3.116 83.426-6.642L83.426-6.642L83.426-20.008Q83.426-29.766 75.718-29.766L75.718-29.766Q72.520-29.766 69.281-27.675Q66.042-25.584 63.664-22.058L63.664-22.058L63.336-23.042Q67.190-28.126 70.716-30.299Q74.242-32.472 77.932-32.472L77.932-32.472Q82.360-32.472 84.820-30.053Q87.280-27.634 87.280-22.550L87.280-22.550L87.280-6.642Q87.280-3.116 88.264-2.050Q89.248-0.984 92.692-0.984L92.692-0.984Q92.856-0.984 92.856-0.492Q92.856 0 92.692 0L92.692 0Q91.216 0 89.371-0.082Q87.526-0.164 85.394-0.164L85.394-0.164Q83.344-0.164 81.417-0.082Q79.490 0 78.096 0Z M114.126 0.984L114.126 0.984Q109.288 0.984 106.049-1.271Q102.810-3.526 101.170-7.134Q99.530-10.742 99.530-14.760L99.530-14.760Q99.530-19.762 101.826-23.739Q104.122-27.716 108.017-30.053Q111.912-32.390 116.504-32.390L116.504-32.390Q121.178-32.390 123.474-29.848Q125.770-27.306 125.770-23.042L125.770-23.042Q125.770-21.976 125.565-21.484Q125.360-20.992 124.786-20.992L124.786-20.992L120.932-20.992Q121.342-26.076 119.333-28.413Q117.324-30.750 113.880-30.750L113.880-30.750Q109.288-30.750 106.746-27.265Q104.204-23.780 104.204-17.712L104.204-17.712Q104.204-13.120 105.680-9.471Q107.156-5.822 110.026-3.731Q112.896-1.640 116.996-1.640L116.996-1.640Q119.866-1.640 121.711-2.501Q123.556-3.362 125.278-4.428L125.278-4.428Q125.442-4.592 125.729-4.223Q126.016-3.854 125.852-3.608L125.852-3.608Q122.982-1.148 120.071-0.082Q117.160 0.984 114.126 0.984ZM121.752-20.992L103.138-20.910L103.056-21.894L121.752-22.222L121.752-20.992Z" fill="#F7F2EA"/></g>
  <g transform="translate(171.70600000000002, 150)"><path d="M84 0L84 0Q81.450 0 75.600-5.850Q69.750-11.700 61.500-22.575Q53.250-33.450 43.050-48.300L43.050-48.300L50.250-50.550Q63.150-32.400 72.150-21.675Q81.150-10.950 88.050-6.375Q94.950-1.800 101.400-1.800L101.400-1.800Q101.850-1.800 101.850-0.900Q101.850 0 101.400 0L101.400 0Q94.650 0 90.375 0Q86.100 0 84 0ZM44.850-94.200L44.850-94.200Q56.400-94.200 62.475-88.650Q68.550-83.100 68.550-74.250L68.550-74.250Q68.550-66.300 63.900-59.850Q59.250-53.400 51.525-49.650Q43.800-45.900 34.500-45.900L34.500-45.900Q33.150-45.900 31.350-46.050Q29.550-46.200 28.050-46.350L28.050-46.350L28.050-12.150Q28.050-7.800 28.950-5.550Q29.850-3.300 32.775-2.550Q35.700-1.800 41.400-1.800L41.400-1.800Q41.850-1.800 41.850-0.900Q41.850 0 41.400 0L41.400 0Q37.800 0 33.525-0.150Q29.250-0.300 24-0.300L24-0.300Q19.200-0.300 14.700-0.150Q10.200 0 6.600 0L6.600 0Q6.300 0 6.300-0.900Q6.300-1.800 6.600-1.800L6.600-1.800Q12.300-1.800 15.225-2.550Q18.150-3.300 19.200-5.550Q20.250-7.800 20.250-12.150L20.250-12.150L20.250-81.600Q20.250-85.950 19.275-88.125Q18.300-90.300 15.450-91.125Q12.600-91.950 6.900-91.950L6.900-91.950Q6.450-91.950 6.450-92.850Q6.450-93.750 6.900-93.750L6.900-93.750Q10.350-93.750 14.775-93.525Q19.200-93.300 24-93.300L24-93.300Q28.650-93.300 34.800-93.750Q40.950-94.200 44.850-94.200ZM60.150-70.200L60.150-70.200Q60.150-78.300 57.525-83.100Q54.900-87.900 50.025-90.075Q45.150-92.250 38.250-92.250L38.250-92.250Q32.850-92.250 30.450-90.300Q28.050-88.350 28.050-81.300L28.050-81.300L28.050-49.800Q30.150-49.650 32.625-49.500Q35.100-49.350 37.050-49.350L37.050-49.350Q49.950-49.350 55.050-54.750Q60.150-60.150 60.150-70.200Z M135.300 1.800L135.300 1.800Q126.450 1.800 120.525-2.325Q114.600-6.450 111.600-13.050Q108.600-19.650 108.600-27L108.600-27Q108.600-36.150 112.800-43.425Q117-50.700 124.125-54.975Q131.250-59.250 139.650-59.250L139.650-59.250Q148.200-59.250 152.400-54.600Q156.600-49.950 156.600-42.150L156.600-42.150Q156.600-40.200 156.225-39.300Q155.850-38.400 154.800-38.400L154.800-38.400L147.750-38.400Q148.500-47.700 144.825-51.975Q141.150-56.250 134.850-56.250L134.850-56.250Q126.450-56.250 121.800-49.875Q117.150-43.500 117.150-32.400L117.150-32.400Q117.150-24 119.850-17.325Q122.550-10.650 127.800-6.825Q133.050-3 140.550-3L140.550-3Q145.800-3 149.175-4.575Q152.550-6.150 155.700-8.100L155.700-8.100Q156-8.400 156.525-7.725Q157.050-7.050 156.750-6.600L156.750-6.600Q151.500-2.100 146.175-0.150Q140.850 1.800 135.300 1.800ZM149.250-38.400L115.200-38.250L115.050-40.050L149.250-40.650L149.250-38.400Z M171.750 0L171.750 0Q171.300 0 171.300-0.900Q171.300-1.800 171.750-1.800L171.750-1.800Q178.350-1.800 180.375-3.750Q182.400-5.700 182.400-12.150L182.400-12.150L182.400-45.900Q182.400-49.650 181.725-51.375Q181.050-53.100 178.725-53.625Q176.400-54.150 171.150-54.150L171.150-54.150Q170.700-54.150 170.700-55.050Q170.700-55.950 171.150-55.950L171.150-55.950Q177.750-55.950 179.925-57.450Q182.100-58.950 182.250-62.700L182.250-62.700Q183-87.600 191.250-98.250Q199.500-108.900 214.650-108.900L214.650-108.900Q222.450-108.900 227.250-106.575Q232.050-104.250 232.050-101.250L232.050-101.250Q232.050-99.150 230.625-98.100Q229.200-97.050 227.400-97.050L227.400-97.050Q226.050-97.050 224.850-97.725Q223.650-98.400 222-100.350L222-100.350Q219.600-103.500 216.675-105Q213.750-106.500 209.550-106.500L209.550-106.500Q200.850-106.500 195.225-96.825Q189.600-87.150 189.600-65.850L189.600-65.850L189.600-12.150Q189.600-7.800 190.575-5.550Q191.550-3.300 194.850-2.550Q198.150-1.800 204.750-1.800L204.750-1.800Q205.050-1.800 205.050-0.900Q205.050 0 204.750 0L204.750 0Q199.800 0 195.225-0.150Q190.650-0.300 185.850-0.300L185.850-0.300Q181.950-0.300 178.275-0.150Q174.600 0 171.750 0ZM209.100-50.700L209.100-50.700Q203.250-52.200 197.925-52.575Q192.600-52.950 186.600-52.950L186.600-52.950L186.600-56.100Q192.450-56.100 197.925-56.550Q203.400-57 209.550-57.600L209.550-57.600Q210-57.600 210.300-56.625Q210.600-55.650 210.600-54.150L210.600-54.150Q210.600-53.100 210.150-51.825Q209.700-50.550 209.100-50.700Z M250.050 1.950L250.050 1.950Q241.200 1.950 234.675-2.400Q228.150-6.750 224.625-14.025Q221.100-21.300 221.100-29.700L221.100-29.700Q221.100-37.500 223.950-43.200Q226.800-48.900 231.525-52.575Q236.250-56.250 241.800-58.050Q247.350-59.850 252.750-59.850L252.750-59.850Q261.750-59.850 268.200-55.350Q274.650-50.850 278.100-43.800Q281.550-36.750 281.550-28.950L281.550-28.950Q281.550-19.350 277.200-12.450Q272.850-5.550 265.725-1.800Q258.600 1.950 250.050 1.950ZM254.250-0.750L254.250-0.750Q262.650-0.750 267.750-6.375Q272.850-12 272.850-25.050L272.850-25.050Q272.850-34.200 269.700-41.400Q266.550-48.600 260.925-52.800Q255.300-57 247.800-57L247.800-57Q239.250-57 234.450-51.075Q229.650-45.150 229.650-34.050L229.650-34.050Q229.650-25.200 232.725-17.550Q235.800-9.900 241.350-5.325Q246.900-0.750 254.250-0.750Z M310.950-40.650L310.950-40.650L310.350-42.150Q315.900-49.050 319.425-52.725Q322.950-56.400 325.500-57.825Q328.050-59.250 330.450-59.250L330.450-59.250Q333.600-59.250 336.600-57.600Q339.600-55.950 339.600-53.550L339.600-53.550Q339.600-52.050 338.475-50.850Q337.350-49.650 335.250-49.650L335.250-49.650Q333.450-49.650 332.175-50.700Q330.900-51.750 329.400-52.725Q327.900-53.700 325.350-53.700L325.350-53.700Q324-53.700 322.425-52.875Q320.850-52.050 318.225-49.275Q315.600-46.500 310.950-40.650ZM297 0L297 0Q296.550 0 296.550-0.900Q296.550-1.800 297-1.800L297-1.800Q303.150-1.800 304.950-3.750Q306.750-5.700 306.750-12.150L306.750-12.150L306.750-42.150Q306.750-47.250 305.550-49.575Q304.350-51.900 301.350-51.900L301.350-51.900Q299.850-51.900 297.750-51.300Q295.650-50.700 292.950-49.650L292.950-49.650Q292.350-49.500 291.975-50.250Q291.600-51 292.200-51.300L292.200-51.300L308.850-59.100Q309.150-59.250 309.600-59.250L309.600-59.250Q310.650-59.250 312.225-56.175Q313.800-53.100 313.800-47.250L313.800-47.250L313.800-12.150Q313.800-7.800 314.850-5.550Q315.900-3.300 319.125-2.550Q322.350-1.800 328.800-1.800L328.800-1.800Q329.250-1.800 329.250-0.900Q329.250 0 328.800 0L328.800 0Q325.200 0 320.400-0.150Q315.600-0.300 310.350-0.300L310.350-0.300Q306.600-0.300 303.075-0.150Q299.550 0 297 0Z M431.100 0L431.100 0Q430.800 0 430.800-0.900Q430.800-1.800 431.100-1.800L431.100-1.800Q437.250-1.800 439.125-3.750Q441-5.700 441-12.150L441-12.150L441-36.600Q441-54.450 427.650-54.450L427.650-54.450Q422.100-54.450 416.475-50.625Q410.850-46.800 406.500-40.350L406.500-40.350L405.900-42.150Q412.800-51.450 419.025-55.425Q425.250-59.400 431.700-59.400L431.700-59.400Q439.500-59.400 443.775-54.975Q448.050-50.550 448.050-41.250L448.050-41.250L448.050-12.150Q448.050-5.700 449.775-3.750Q451.500-1.800 457.800-1.800L457.800-1.800Q458.250-1.800 458.250-0.900Q458.250 0 457.800 0L457.800 0Q455.250 0 451.800-0.150Q448.350-0.300 444.450-0.300L444.450-0.300Q440.700-0.300 437.250-0.150Q433.800 0 431.100 0ZM392.550 0L392.550 0Q392.100 0 392.100-0.900Q392.100-1.800 392.550-1.800L392.550-1.800Q398.700-1.800 400.500-3.750Q402.300-5.700 402.300-12.150L402.300-12.150L402.300-36.600Q402.300-54.450 389.100-54.450L389.100-54.450Q383.550-54.450 377.925-50.625Q372.300-46.800 367.950-40.350L367.950-40.350L367.350-42.150Q374.100-51.450 380.325-55.425Q386.550-59.400 393-59.400L393-59.400Q400.800-59.400 405.075-54.975Q409.350-50.550 409.350-41.250L409.350-41.250L409.350-12.150Q409.350-5.700 411.150-3.750Q412.950-1.800 419.250-1.800L419.250-1.800Q419.550-1.800 419.550-0.900Q419.550 0 419.250 0L419.250 0Q416.550 0 413.175-0.150Q409.800-0.300 405.900-0.300L405.900-0.300Q402.150-0.300 398.625-0.150Q395.100 0 392.550 0ZM354 0L354 0Q353.550 0 353.550-0.900Q353.550-1.800 354-1.800L354-1.800Q360.150-1.800 361.950-3.750Q363.750-5.700 363.750-12.150L363.750-12.150L363.750-42.150Q363.750-47.250 362.550-49.575Q361.350-51.900 358.350-51.900L358.350-51.900Q356.850-51.900 354.750-51.300Q352.650-50.700 349.950-49.650L349.950-49.650Q349.350-49.500 348.975-50.250Q348.600-51 349.200-51.300L349.200-51.300L365.850-59.100Q366.150-59.250 366.600-59.250L366.600-59.250Q367.650-59.250 369.225-56.175Q370.800-53.100 370.800-47.250L370.800-47.250L370.800-12.150Q370.800-5.700 372.525-3.750Q374.250-1.800 380.550-1.800L380.550-1.800Q381-1.800 381-0.900Q381 0 380.550 0L380.550 0Q378 0 374.550-0.150Q371.100-0.300 367.350-0.300L367.350-0.300Q363.600-0.300 360.075-0.150Q356.550 0 354 0Z  M586.200 0L586.200 0Q583.650 0 577.800-5.850Q571.950-11.700 563.700-22.575Q555.450-33.450 545.250-48.300L545.250-48.300L552.450-50.550Q565.350-32.400 574.350-21.675Q583.350-10.950 590.250-6.375Q597.150-1.800 603.600-1.800L603.600-1.800Q604.050-1.800 604.050-0.900Q604.050 0 603.600 0L603.600 0Q596.850 0 592.575 0Q588.300 0 586.200 0ZM547.050-94.200L547.050-94.200Q558.600-94.200 564.675-88.650Q570.750-83.100 570.750-74.250L570.750-74.250Q570.750-66.300 566.100-59.850Q561.450-53.400 553.725-49.650Q546-45.900 536.700-45.900L536.700-45.900Q535.350-45.900 533.550-46.050Q531.750-46.200 530.250-46.350L530.250-46.350L530.250-12.150Q530.250-7.800 531.150-5.550Q532.050-3.300 534.975-2.550Q537.900-1.800 543.600-1.800L543.600-1.800Q544.050-1.800 544.050-0.900Q544.050 0 543.600 0L543.600 0Q540 0 535.725-0.150Q531.450-0.300 526.200-0.300L526.200-0.300Q521.400-0.300 516.900-0.150Q512.400 0 508.800 0L508.800 0Q508.500 0 508.500-0.900Q508.500-1.800 508.800-1.800L508.800-1.800Q514.500-1.800 517.425-2.550Q520.350-3.300 521.400-5.550Q522.450-7.800 522.450-12.150L522.450-12.150L522.450-81.600Q522.450-85.950 521.475-88.125Q520.500-90.300 517.650-91.125Q514.800-91.950 509.100-91.950L509.100-91.950Q508.650-91.950 508.650-92.850Q508.650-93.750 509.100-93.750L509.100-93.750Q512.550-93.750 516.975-93.525Q521.400-93.300 526.200-93.300L526.200-93.300Q530.850-93.300 537-93.750Q543.150-94.200 547.050-94.200ZM562.350-70.200L562.350-70.200Q562.350-78.300 559.725-83.100Q557.100-87.900 552.225-90.075Q547.350-92.250 540.450-92.250L540.450-92.250Q535.050-92.250 532.650-90.300Q530.250-88.350 530.250-81.300L530.250-81.300L530.250-49.800Q532.350-49.650 534.825-49.500Q537.300-49.350 539.250-49.350L539.250-49.350Q552.150-49.350 557.250-54.750Q562.350-60.150 562.350-70.200Z M639.750 1.950L639.750 1.950Q630.900 1.950 624.375-2.400Q617.850-6.750 614.325-14.025Q610.800-21.300 610.800-29.700L610.800-29.700Q610.800-37.500 613.650-43.200Q616.500-48.900 621.225-52.575Q625.950-56.250 631.500-58.050Q637.050-59.850 642.450-59.850L642.450-59.850Q651.450-59.850 657.900-55.350Q664.350-50.850 667.800-43.800Q671.250-36.750 671.250-28.950L671.250-28.950Q671.250-19.350 666.900-12.450Q662.550-5.550 655.425-1.800Q648.300 1.950 639.750 1.950ZM643.950-0.750L643.950-0.750Q652.350-0.750 657.450-6.375Q662.550-12 662.550-25.050L662.550-25.050Q662.550-34.200 659.400-41.400Q656.250-48.600 650.625-52.800Q645-57 637.500-57L637.500-57Q628.950-57 624.150-51.075Q619.350-45.150 619.350-34.050L619.350-34.050Q619.350-25.200 622.425-17.550Q625.500-9.900 631.050-5.325Q636.600-0.750 643.950-0.750Z M714.300 1.950L714.300 1.950Q705.450 1.950 698.925-2.400Q692.400-6.750 688.875-14.025Q685.350-21.300 685.350-29.700L685.350-29.700Q685.350-37.500 688.200-43.200Q691.050-48.900 695.775-52.575Q700.500-56.250 706.050-58.050Q711.600-59.850 717-59.850L717-59.850Q726-59.850 732.450-55.350Q738.900-50.850 742.350-43.800Q745.800-36.750 745.800-28.950L745.800-28.950Q745.800-19.350 741.450-12.450Q737.100-5.550 729.975-1.800Q722.850 1.950 714.300 1.950ZM718.500-0.750L718.500-0.750Q726.900-0.750 732-6.375Q737.100-12 737.100-25.050L737.100-25.050Q737.100-34.200 733.950-41.400Q730.800-48.600 725.175-52.800Q719.550-57 712.050-57L712.050-57Q703.500-57 698.700-51.075Q693.900-45.150 693.900-34.050L693.900-34.050Q693.900-25.200 696.975-17.550Q700.050-9.900 705.600-5.325Q711.150-0.750 718.500-0.750Z M838.350 0L838.350 0Q838.050 0 838.050-0.900Q838.050-1.800 838.350-1.800L838.350-1.800Q844.500-1.800 846.375-3.750Q848.250-5.700 848.250-12.150L848.250-12.150L848.250-36.600Q848.250-54.450 834.900-54.450L834.900-54.450Q829.350-54.450 823.725-50.625Q818.100-46.800 813.750-40.350L813.750-40.350L813.150-42.150Q820.050-51.450 826.275-55.425Q832.500-59.400 838.950-59.400L838.950-59.400Q846.750-59.400 851.025-54.975Q855.300-50.550 855.300-41.250L855.300-41.250L855.300-12.150Q855.300-5.700 857.025-3.750Q858.750-1.800 865.050-1.800L865.050-1.800Q865.500-1.800 865.500-0.900Q865.500 0 865.050 0L865.050 0Q862.500 0 859.050-0.150Q855.600-0.300 851.700-0.300L851.700-0.300Q847.950-0.300 844.500-0.150Q841.050 0 838.350 0ZM799.800 0L799.800 0Q799.350 0 799.350-0.900Q799.350-1.800 799.800-1.800L799.800-1.800Q805.950-1.800 807.750-3.750Q809.550-5.700 809.550-12.150L809.550-12.150L809.550-36.600Q809.550-54.450 796.350-54.450L796.350-54.450Q790.800-54.450 785.175-50.625Q779.550-46.800 775.200-40.350L775.200-40.350L774.600-42.150Q781.350-51.450 787.575-55.425Q793.800-59.400 800.250-59.400L800.250-59.400Q808.050-59.400 812.325-54.975Q816.600-50.550 816.600-41.250L816.600-41.250L816.600-12.150Q816.600-5.700 818.400-3.750Q820.200-1.800 826.500-1.800L826.500-1.800Q826.800-1.800 826.800-0.900Q826.800 0 826.500 0L826.500 0Q823.800 0 820.425-0.150Q817.050-0.300 813.150-0.300L813.150-0.300Q809.400-0.300 805.875-0.150Q802.350 0 799.800 0ZM761.250 0L761.250 0Q760.800 0 760.800-0.900Q760.800-1.800 761.250-1.800L761.250-1.800Q767.400-1.800 769.200-3.750Q771.000-5.700 771.000-12.150L771.000-12.150L771.000-42.150Q771.000-47.250 769.800-49.575Q768.600-51.900 765.600-51.900L765.600-51.900Q764.100-51.900 762.000-51.300Q759.900-50.700 757.200-49.650L757.200-49.650Q756.600-49.500 756.225-50.250Q755.850-51 756.450-51.300L756.450-51.300L773.100-59.100Q773.400-59.250 773.850-59.250L773.850-59.250Q774.900-59.250 776.475-56.175Q778.050-53.100 778.050-47.250L778.050-47.250L778.050-12.150Q778.050-5.700 779.775-3.750Q781.500-1.800 787.800-1.800L787.800-1.800Q788.250-1.800 788.250-0.900Q788.250 0 787.800 0L787.800 0Q785.250 0 781.800-0.150Q778.350-0.300 774.600-0.300L774.600-0.300Q770.850-0.300 767.325-0.150Q763.800 0 761.250 0Z" fill="#F7F2EA"/></g>
</svg>